# xmcd
#
# Track frame offsets:
#	220
#	4227
#	16212
#	32787
#	45627
#	60752
#	73010
#	85485
#	99217
#	111442
#	123102
#	133510
#
# Disc length: 1938 seconds
#
# Revision: 4
# Processed by: cddbd v1.5.1PL0 Copyright (c) Steve Scherf et al.
# Submitted via: dBpowerAMP V4.0
#
DISCID=9207900c
DTITLE=Merle Haggard - My Salute To Bob Wills
DYEAR=1970
DGENRE=Country
TTITLE0=Brown Skinned Gal
TTITLE1=Right Or Wrong
TTITLE2=Brain Cloudy Blues
TTITLE3=Stay A Little Longer
TTITLE4=Misery
TTITLE5=Time Changes Everything
TTITLE6=San Antonio Rose
TTITLE7=I Knew the Moment I Lost You
TTITLE8=Roly Poly
TTITLE9=Old Fashioned Love
TTITLE10=Corrine Corrina
TTITLE11=Take Me Back To Tulsa
EXTD=Faithfully submitted by +Sound Man+\nVisit my Merle Haggard Discography site at:\nhttp://www.angelfire.com/stars4/anxietyfriend/merlehaggard.html
EXTT0=
EXTT1=
EXTT2=
EXTT3=
EXTT4=
EXTT5=
EXTT6=
EXTT7=
EXTT8=
EXTT9=
EXTT10=
EXTT11=
PLAYORDER=
